<!-- Generated by IcoMoon.io -->
<svg version="1.1" xmlns="http://www.w3.org/2000/svg" width="32" height="32" viewBox="0 0 32 32">
<title>backyard</title>
<path d="M7.165 12.217c-1.051 1.382-0.334 3.693 1.599 5.163 1.002 0.762 2.132 1.145 3.134 1.145 0.643 0 1.233-0.157 1.704-0.472 0.558 0.865 1.81 1.471 3.271 1.471 1.487 0 2.762-0.625 3.304-1.516 0.046 0.001 0.093 0.002 0.139 0.002 0.729 0 1.508-0.169 2.261-0.526 2.151-1.017 3.268-3.166 2.496-4.797-0.041-0.087-0.103-0.158-0.153-0.237 0.249-0.495 0.398-1.041 0.398-1.623 0-0.92-0.362-1.754-0.941-2.416 0.725-1.393-0.275-3.5-2.332-4.798-0.308-0.194-0.624-0.352-0.94-0.489 0.059-1.064-0.778-2.183-2.098-2.669-0.424-0.156-0.852-0.23-1.259-0.23-0.81 0-1.537 0.292-1.985 0.807-0.7-0.652-1.613-1.034-2.565-1.034-0.294 0-0.592 0.036-0.888 0.112-2.013 0.513-3.205 2.65-2.664 4.769 0.038 0.151 0.101 0.288 0.154 0.43-1.75 0.395-3.059 1.952-3.059 3.822 0 0.99 0.379 1.884 0.985 2.575-0.211 0.141-0.405 0.303-0.561 0.509z"></path>
<path d="M24.658 29.873h-6.487v-9.433c-0.415 0.089-0.847 0.149-1.298 0.149-1.157 0-2.219-0.327-3.045-0.876v10.16h-6.487c-0.588 0-1.064 0.476-1.064 1.064s0.476 1.064 1.064 1.064h17.317c0.587 0 1.064-0.476 1.064-1.064s-0.476-1.064-1.064-1.064z"></path>
</svg>
