<!-- Generated by IcoMoon.io -->
<svg version="1.1" xmlns="http://www.w3.org/2000/svg" width="32" height="32" viewBox="0 0 32 32">
<title>celsius-degrees-symbol-of-temperature-svgrepo-com</title>
<path d="M5.8 2.812c-3.2 0-5.8 2.602-5.8 5.8 0 3.201 2.601 5.799 5.8 5.799s5.802-2.6 5.8-5.799c0-3.198-2.601-5.8-5.8-5.8zM5.8 11.513c-1.599 0-2.901-1.301-2.901-2.901 0-1.597 1.302-2.901 2.901-2.901s2.901 1.302 2.901 2.901c0 1.6-1.302 2.901-2.901 2.901zM26.322 24.652c-4.826 0-7.686-3.040-7.686-7.862 0-5.36 3.359-7.969 7.647-7.969 1.965 0 3.501 0.431 4.571 0.895l1.145-4.289c-0.965-0.537-3.111-1.073-5.934-1.073-7.288 0-13.149 4.54-13.149 12.759 0 6.861 4.289 12.076 12.617 12.076 2.896 0 5.182-0.573 6.146-1.038l-0.786-4.287c-1.106 0.465-2.893 0.789-4.571 0.789z"></path>
</svg>
