<!-- Generated by IcoMoon.io -->
<svg version="1.1" xmlns="http://www.w3.org/2000/svg" width="32" height="32" viewBox="0 0 32 32">
<title>sofa</title>
<path d="M32 11.2h-1.067v-5.867h-29.867v5.867h-1.067v12.267h1.067v1.6h1.067v0.533c-0.294 0-0.533 0.239-0.533 0.533s0.239 0.533 0.533 0.533h1.067c0.294 0 0.533-0.239 0.533-0.533s-0.239-0.533-0.533-0.533v-0.533h1.067v-1.6h23.467v1.6h1.067v0.533c-0.294 0-0.533 0.239-0.533 0.533s0.239 0.533 0.533 0.533h1.067c0.294 0 0.533-0.239 0.533-0.533s-0.239-0.533-0.533-0.533v-0.533h1.067v-1.6h1.067v-12.267zM16.533 6.4h13.333v4.8h-2.133v3.733h-11.2v-8.533zM4.267 16h23.467v3.2h-23.467v-3.2zM2.133 6.4h13.333v8.533h-11.2v-3.733h-2.133v-4.8zM3.2 24h-1.067v-0.533h1.067v0.533zM29.867 24h-1.067v-0.533h1.067v0.533zM30.933 22.4h-29.867v-10.133h2.133v8h25.6v-8h2.133v10.133z"></path>
</svg>
