<!-- Generated by IcoMoon.io -->
<svg version="1.1" xmlns="http://www.w3.org/2000/svg" width="32" height="32" viewBox="0 0 32 32">
<title>sofa3</title>
<path d="M3.042 14.711c-0.758 0-1.375-0.617-1.375-1.375s0.617-1.375 1.375-1.375c0.758 0 1.375 0.617 1.375 1.375s-0.617 1.375-1.375 1.375zM3.042 12.601c-0.405 0-0.735 0.33-0.735 0.735s0.33 0.735 0.735 0.735c0.405 0 0.735-0.33 0.735-0.735s-0.33-0.735-0.735-0.735z"></path>
<path d="M28.958 14.711c-0.758 0-1.375-0.617-1.375-1.375s0.617-1.375 1.375-1.375c0.758 0 1.375 0.617 1.375 1.375s-0.617 1.375-1.375 1.375zM28.958 12.601c-0.405 0-0.735 0.33-0.735 0.735s0.33 0.735 0.735 0.735c0.405 0 0.735-0.33 0.735-0.735s-0.33-0.735-0.735-0.735z"></path>
<path d="M32 13.336c0-1.677-1.364-3.042-3.042-3.042-0.262 0-0.516 0.033-0.758 0.096-0.21-2.115-1.996-3.772-4.165-3.772h-16.071c-2.169 0-3.957 1.657-4.167 3.772-0.242-0.062-0.495-0.095-0.756-0.095-1.677 0-3.042 1.365-3.042 3.042 0 1.435 1.006 2.665 2.382 2.969v5.002c-0 0.003-0.001 0.005-0.001 0.007 0 0.701 0.429 1.303 1.038 1.559-0.099 0.162-0.158 0.351-0.158 0.555 0 0.418 0.324 0.744 0.525 0.906v0.728c0 0.177 0.143 0.32 0.32 0.32h1.366c0.177 0 0.32-0.143 0.32-0.32v-0.728c0.201-0.162 0.525-0.488 0.525-0.906 0-0.151-0.032-0.294-0.089-0.424h19.544c-0.057 0.13-0.089 0.273-0.089 0.424 0 0.418 0.324 0.744 0.525 0.906v0.728c0 0.177 0.143 0.32 0.32 0.32h1.366c0.177 0 0.32-0.143 0.32-0.32v-0.728c0.201-0.162 0.525-0.488 0.525-0.906 0-0.203-0.058-0.393-0.158-0.555 0.609-0.256 1.038-0.858 1.038-1.559 0-0.002-0.001-0.005-0.001-0.007v-5.003c1.376-0.304 2.381-1.534 2.381-2.969zM7.965 7.258h16.071c1.896 0 3.45 1.495 3.544 3.369-0.986 0.504-1.662 1.529-1.662 2.71 0 0.003 0 0.006 0 0.009s-0 0.005-0 0.008v3.021c-0.277-0.115-0.648-0.214-1.121-0.301-0.985-0.181-2.291-0.28-3.677-0.28s-2.692 0.1-3.677 0.28c-0.688 0.126-1.16 0.277-1.441 0.467-0.281-0.189-0.754-0.341-1.441-0.467-0.985-0.181-2.291-0.28-3.677-0.28s-2.692 0.1-3.677 0.28c-0.474 0.087-0.844 0.186-1.121 0.301v-3.021c0-0.003 0-0.005-0-0.008s0-0.006 0-0.009c0-1.181-0.677-2.206-1.663-2.71 0.094-1.873 1.647-3.369 3.543-3.369zM25.917 17.098v1.447c0 0.185-0.15 0.335-0.335 0.335h-9.262v-1.782c0.238-0.235 1.865-0.664 4.798-0.664 2.936 0 4.562 0.429 4.798 0.664zM15.68 17.098v1.782h-9.261c-0.185 0-0.335-0.15-0.335-0.335v-1.447c0.236-0.235 1.862-0.664 4.798-0.664s4.562 0.429 4.798 0.664zM5.677 23.429c0 0.158-0.225 0.376-0.376 0.474-0.092 0.059-0.148 0.161-0.148 0.27v0.57h-0.726v-0.57c0-0.109-0.056-0.211-0.148-0.27-0.152-0.098-0.377-0.317-0.377-0.475 0-0.234 0.19-0.424 0.424-0.424h0.928c0.234 0 0.424 0.19 0.424 0.424zM27.723 23.903c-0.093 0.059-0.149 0.161-0.149 0.27v0.57h-0.726v-0.57c0-0.109-0.056-0.211-0.148-0.27-0.152-0.098-0.377-0.317-0.377-0.475 0-0.234 0.19-0.424 0.424-0.424h0.928c0.234 0 0.424 0.19 0.424 0.424 0 0.158-0.225 0.376-0.376 0.474zM29.387 15.699c0-0-0-0-0-0-0.033 0.006-0.321 0.040-0.429 0.040-0.395 0-0.772-0.093-1.119-0.276-0.156-0.082-0.35-0.022-0.432 0.134s-0.022 0.35 0.134 0.432c0.434 0.229 0.924 0.35 1.417 0.35 0.007 0 0.013-0 0.020-0v4.937c0 0.002 0 0.003 0 0.005-0.003 0.577-0.472 1.045-1.050 1.045h-23.859c-0.577 0-1.047-0.468-1.050-1.045 0-0.002 0.001-0.003 0.001-0.005v-4.937c0.007 0 0.014 0 0.020 0 0.493 0 0.983-0.121 1.417-0.35 0.156-0.082 0.216-0.276 0.134-0.432s-0.276-0.216-0.432-0.134c-0.342 0.18-0.729 0.276-1.119 0.276-0.14 0-0.28-0.014-0.417-0.038 0 0 0 0 0 0.001-1.14-0.199-1.985-1.196-1.985-2.365 0-1.324 1.077-2.402 2.402-2.402s2.402 1.077 2.402 2.399l-0 0.018c0 0.006 0 0.013 0 0.019v5.174c0 0.538 0.437 0.975 0.975 0.975h19.163c0.538 0 0.975-0.437 0.975-0.975v-5.174c0-0.005 0-0.011 0-0.016 0-0.007-0-0.014-0-0.017 0-1.324 1.077-2.402 2.402-2.402s2.402 1.077 2.402 2.402c0 1.165-0.839 2.158-1.973 2.362z"></path>
<path d="M10.62 9.463c-0.125-0.125-0.328-0.125-0.453 0l-0.236 0.236-0.236-0.236c-0.125-0.125-0.328-0.125-0.453 0s-0.125 0.328 0 0.453l0.236 0.236-0.236 0.236c-0.125 0.125-0.125 0.328 0 0.453 0.063 0.062 0.144 0.094 0.226 0.094s0.164-0.031 0.226-0.094l0.236-0.236 0.236 0.236c0.063 0.062 0.144 0.094 0.226 0.094s0.164-0.031 0.226-0.094c0.125-0.125 0.125-0.328 0-0.453l-0.236-0.236 0.236-0.236c0.125-0.125 0.125-0.328 0-0.453z"></path>
<path d="M10.62 12.981c-0.125-0.125-0.328-0.125-0.453 0l-0.236 0.236-0.236-0.236c-0.125-0.125-0.328-0.125-0.453 0s-0.125 0.328 0 0.453l0.236 0.236-0.236 0.236c-0.125 0.125-0.125 0.328 0 0.453 0.063 0.063 0.144 0.094 0.226 0.094s0.164-0.031 0.226-0.094l0.236-0.236 0.236 0.236c0.063 0.063 0.144 0.094 0.226 0.094s0.164-0.031 0.226-0.094c0.125-0.125 0.125-0.328 0-0.453l-0.236-0.236 0.236-0.236c0.125-0.125 0.125-0.328 0-0.453z"></path>
<path d="M22.522 10.152l0.236-0.236c0.125-0.125 0.125-0.328 0-0.453s-0.328-0.125-0.452 0l-0.236 0.236-0.236-0.236c-0.125-0.125-0.328-0.125-0.452 0s-0.125 0.328 0 0.453l0.236 0.236-0.236 0.236c-0.125 0.125-0.125 0.328 0 0.453 0.062 0.062 0.144 0.094 0.226 0.094s0.164-0.031 0.226-0.094l0.236-0.236 0.236 0.236c0.062 0.062 0.144 0.094 0.226 0.094s0.164-0.031 0.226-0.094c0.125-0.125 0.125-0.328 0-0.453l-0.236-0.236z"></path>
<path d="M22.758 12.981c-0.125-0.125-0.328-0.125-0.452 0l-0.236 0.236-0.236-0.236c-0.125-0.125-0.328-0.125-0.452 0s-0.125 0.328 0 0.453l0.236 0.236-0.236 0.236c-0.125 0.125-0.125 0.328 0 0.453 0.062 0.063 0.144 0.094 0.226 0.094s0.164-0.031 0.226-0.094l0.236-0.236 0.236 0.236c0.062 0.063 0.144 0.094 0.226 0.094s0.164-0.031 0.226-0.094c0.125-0.125 0.125-0.328 0-0.453l-0.236-0.236 0.236-0.236c0.125-0.125 0.125-0.328-0-0.453z"></path>
<path d="M16.452 10.152l0.236-0.236c0.125-0.125 0.125-0.328-0-0.453s-0.328-0.125-0.453 0l-0.236 0.236-0.236-0.236c-0.125-0.125-0.328-0.125-0.453 0s-0.125 0.328 0 0.453l0.236 0.236-0.236 0.236c-0.125 0.125-0.125 0.328 0 0.453 0.062 0.062 0.144 0.094 0.226 0.094s0.164-0.031 0.226-0.094l0.236-0.236 0.236 0.236c0.063 0.063 0.144 0.094 0.226 0.094s0.164-0.031 0.226-0.094c0.125-0.125 0.125-0.328 0-0.453l-0.236-0.236z"></path>
<path d="M16.689 12.981c-0.125-0.125-0.328-0.125-0.453 0l-0.236 0.236-0.236-0.236c-0.125-0.125-0.328-0.125-0.453-0s-0.125 0.328 0 0.453l0.236 0.236-0.236 0.236c-0.125 0.125-0.125 0.328 0 0.453 0.062 0.063 0.144 0.094 0.226 0.094s0.164-0.031 0.226-0.094l0.236-0.236 0.236 0.236c0.063 0.063 0.144 0.094 0.226 0.094s0.164-0.031 0.226-0.094c0.125-0.125 0.125-0.328 0-0.453l-0.236-0.236 0.236-0.236c0.125-0.125 0.125-0.328-0-0.453z"></path>
</svg>
