<!-- Generated by IcoMoon.io -->
<svg version="1.1" xmlns="http://www.w3.org/2000/svg" width="32" height="32" viewBox="0 0 32 32">
<title>sofa2</title>
<path d="M5.5 10.276h1v0.949h-1v-0.949z"></path>
<path d="M25 10.276h1v0.949h-1v-0.949z"></path>
<path d="M19.5 10.276h1v0.949h-1v-0.949z"></path>
<path d="M11.5 10.276h1v0.949h-1v-0.949z"></path>
<path d="M30.488 19.046c0.888-0.384 1.512-1.268 1.512-2.296 0-1.023-0.618-1.904-1.5-2.291v-5.971c0-1.785-1.453-3.238-3.238-3.238h-8.524c-1.151 0-2.164 0.605-2.738 1.513-0.574-0.908-1.587-1.513-2.738-1.513h-8.524c-1.785 0-3.238 1.453-3.238 3.238v5.971c-0.882 0.387-1.5 1.268-1.5 2.291 0 1.028 0.623 1.912 1.512 2.296-0.896 0.454-1.512 1.383-1.512 2.454 0 1.516 1.234 2.75 2.75 2.75h0.25v2.5h1v-2.5h24v2.5h1v-2.5h0.25c1.516 0 2.75-1.234 2.75-2.75-0-1.071-0.616-2-1.512-2.454zM31 16.75c0 0.827-0.673 1.5-1.5 1.5s-1.5-0.673-1.5-1.5 0.673-1.5 1.5-1.5c0.827 0 1.5 0.673 1.5 1.5zM28.002 18.75h-0.213c0.021-0.042 0.040-0.084 0.058-0.127 0.050 0.044 0.102 0.087 0.155 0.127zM16.5 17.012v-8.524c-0-1.234 1.004-2.238 2.238-2.238h8.524c1.234 0 2.238 1.004 2.238 2.238v5.762c-0.722 0-1.372 0.308-1.829 0.798-0.317-0.466-0.851-0.773-1.456-0.773h-4.429c-0.97 0-1.76 0.789-1.76 1.76v1.929c0 0.282 0.067 0.549 0.186 0.785h-3.711v-1.738zM27.026 17.105v0.86c0 0.379-0.261 0.696-0.612 0.785h-4.827c-0.351-0.089-0.612-0.407-0.612-0.785v-1.929c0-0.447 0.364-0.811 0.811-0.811h4.429c0.447 0 0.811 0.364 0.811 0.811v0.36c-0.017 0.116-0.026 0.234-0.026 0.355s0.009 0.239 0.026 0.355zM2.5 8.488c0-1.234 1.004-2.238 2.238-2.238h8.524c1.234 0 2.238 1.004 2.238 2.238v10.262h-11.502c0.608-0.456 1.002-1.183 1.002-2 0-1.379-1.122-2.5-2.5-2.5v-5.762zM1 16.75c0-0.827 0.673-1.5 1.5-1.5s1.5 0.673 1.5 1.5c0 0.827-0.673 1.5-1.5 1.5s-1.5-0.673-1.5-1.5zM29.25 23.25h-26.5c-0.965 0-1.75-0.785-1.75-1.75s0.785-1.75 1.75-1.75h26.5c0.965 0 1.75 0.785 1.75 1.75s-0.785 1.75-1.75 1.75z"></path>
</svg>
