<!-- Generated by IcoMoon.io -->
<svg version="1.1" xmlns="http://www.w3.org/2000/svg" width="32" height="32" viewBox="0 0 32 32">
<title>high-temperature-svgrepo-com</title>
<path d="M18.712 20.548h0.108v-17.728c0-1.557-1.262-2.82-2.82-2.82s-2.82 1.262-2.82 2.82v17.728h0.108c-1.978 0.994-3.336 3.040-3.336 5.405 0 3.34 2.708 6.048 6.048 6.048s6.048-2.708 6.048-6.048c-0-2.365-1.358-4.411-3.336-5.405zM14.464 23.237c-0.258 0.132-2.462 1.354-1.467 4.139 0.13 0.364-0.060 0.764-0.424 0.894-0.078 0.028-0.157 0.041-0.235 0.041-0.287 0-0.557-0.178-0.659-0.464-1.149-3.216 0.91-5.24 2.159-5.861 0.346-0.172 0.766-0.031 0.938 0.315s0.031 0.764-0.313 0.936zM17.362 7.919h-2.724v-4.833c0-0.751 0.611-1.362 1.362-1.362s1.362 0.611 1.362 1.362v4.833z"></path>
</svg>
