<!-- Generated by IcoMoon.io -->
<svg version="1.1" xmlns="http://www.w3.org/2000/svg" width="32" height="32" viewBox="0 0 32 32">
<title>humidity-svgrepo-com</title>
<path d="M20.382 4.947c-0.239-0.325-0.696-0.395-1.021-0.156s-0.395 0.696-0.156 1.021c5.315 7.232 6.43 12.030 6.43 14.782 0 2.697-0.806 5.141-2.268 6.883-1.706 2.032-4.185 3.062-7.367 3.062-7.112 0-9.635-5.358-9.635-9.945 0-5.086 2.737-10.053 5.032-13.324 2.518-3.588 5.074-5.981 5.1-6.004 0.296-0.274 0.313-0.737 0.038-1.032s-0.737-0.313-1.032-0.038c-0.108 0.1-2.678 2.502-5.283 6.209-2.425 3.45-5.316 8.712-5.316 14.189 0 3.025 0.942 5.804 2.652 7.825 1.983 2.343 4.903 3.582 8.444 3.582 3.583 0 6.517-1.239 8.486-3.584 1.683-2.005 2.61-4.783 2.61-7.823-0-5.382-3.651-11.479-6.714-15.647z"></path>
<path d="M19.323 14.426l-9.267 9.267c-0.285 0.285-0.285 0.748 0 1.033 0.143 0.143 0.33 0.214 0.517 0.214s0.374-0.071 0.517-0.214l9.267-9.267c0.285-0.285 0.285-0.748 0-1.033s-0.748-0.285-1.033 0z"></path>
<path d="M18.693 20.245c-1.294 0-2.347 1.053-2.347 2.347s1.053 2.347 2.347 2.347 2.347-1.053 2.347-2.347-1.053-2.347-2.347-2.347zM18.693 23.479c-0.489 0-0.887-0.398-0.887-0.887s0.398-0.887 0.887-0.887 0.887 0.398 0.887 0.887-0.398 0.887-0.887 0.887z"></path>
<path d="M12.19 18.907c1.294 0 2.347-1.053 2.347-2.347s-1.053-2.347-2.347-2.347-2.347 1.053-2.347 2.347 1.053 2.347 2.347 2.347zM12.19 15.673c0.489 0 0.887 0.398 0.887 0.887s-0.398 0.887-0.887 0.887c-0.489 0-0.887-0.398-0.887-0.887s0.398-0.887 0.887-0.887z"></path>
</svg>
