<!-- Generated by IcoMoon.io -->
<svg version="1.1" xmlns="http://www.w3.org/2000/svg" width="32" height="32" viewBox="0 0 32 32">
<title>drops-humidity-svgrepo-com</title>
<path fill="#e21b1b" d="M19.674 17.25c-2.657-5.479-3.674-7.217-3.674-7.217s-1.017 1.739-3.674 7.217c-1.405 2.9-3.050 5.413-3.050 8.562-0.001 5.544 6.724 5.316 6.724 5.316s6.725 0.23 6.725-5.314c0-3.151-1.645-5.666-3.051-8.563z"></path>
<path fill="#000" d="M29.918 5.798c-1.814-3.74-2.508-4.926-2.508-4.926s-0.695 1.187-2.509 4.926c-0.959 1.979-2.082 3.695-2.082 5.845 0 3.784 4.59 3.628 4.59 3.628s4.592 0.157 4.592-3.628c0-2.15-1.123-3.865-2.082-5.845z"></path>
<path fill="#999" d="M7.1 5.798c-1.815-3.74-2.51-4.926-2.51-4.926s-0.694 1.187-2.508 4.926c-0.96 1.98-2.083 3.695-2.083 5.845 0 3.784 4.59 3.628 4.59 3.628s4.59 0.157 4.59-3.628c0.001-2.15-1.123-3.865-2.081-5.845z"></path>
</svg>
