<!-- Generated by IcoMoon.io -->
<svg version="1.1" xmlns="http://www.w3.org/2000/svg" width="32" height="32" viewBox="0 0 32 32">
<title>veranda-svgrepo-com</title>
<path d="M31.482 27.093h-1.14v-1.14c0-0.412-0.235-0.77-0.577-0.95 0.016-0.049 0.024-0.102 0.024-0.156v-12.199h1.14c0.19 0 0.364-0.104 0.455-0.27s0.084-0.369-0.019-0.529l-4.976-7.741c-0.095-0.148-0.26-0.238-0.436-0.238h-19.905c-0.176 0-0.341 0.090-0.436 0.238l-4.976 7.741c-0.103 0.16-0.11 0.362-0.019 0.529s0.265 0.27 0.455 0.27h1.14v12.199c0 0.055 0.009 0.107 0.024 0.156-0.342 0.179-0.577 0.537-0.577 0.95v1.14h-1.14c-0.286 0-0.518 0.232-0.518 0.518s0.232 0.518 0.518 0.518h30.963c0.286 0 0.518-0.232 0.518-0.518s-0.232-0.518-0.518-0.518zM25.365 24.881v-4.492h1.175v4.492h-1.175zM23.153 24.881v-4.492h1.175v4.492h-1.175zM20.942 24.881v-4.492h1.175v4.492h-1.175zM12.095 24.881v-9.219l3.014-3.014h1.782l3.014 3.014v9.219h-7.81zM9.883 24.881v-4.492h1.175v4.492h-1.175zM7.672 24.881v-4.492h1.175v4.492h-1.175zM5.46 24.881v-4.492h1.175v4.492h-1.175zM3.247 24.881c0.001-0.011 0.002-0.023 0.002-0.035v-4.458h1.175v4.492h-1.177zM8.044 12.648l3.014 3.014v3.69h-7.81v-3.69l3.014-3.014h1.782zM19.209 4.907l1.658 6.704h-9.734l1.658-6.704h6.419zM25.738 12.648l3.014 3.014v3.69h-7.81v-3.69l3.014-3.014h1.782zM18.357 12.648h1.548v1.548l-1.548-1.548zM20.942 14.196v-1.548h1.548l-1.548 1.548zM12.095 14.196v-1.548h1.548l-1.548 1.548zM11.058 12.648v1.548l-1.548-1.548h1.548zM27.577 20.389h1.175v4.458c0 0.012 0.001 0.023 0.002 0.035h-1.177v-4.492zM28.752 14.196l-1.548-1.548h1.548v1.548zM29.979 11.611h-8.044l-1.658-6.704h5.392l4.31 6.704zM6.331 4.907h5.392l-1.658 6.704h-8.044l4.31-6.704zM4.796 12.648l-1.548 1.548v-1.548h1.548zM2.695 25.952c0-0.019 0.015-0.035 0.035-0.035h26.54c0.019 0 0.035 0.015 0.035 0.035v1.14h-26.609v-1.14z"></path>
</svg>
