<?xml version="1.0" standalone="no"?> 
<!DOCTYPE svg PUBLIC "-//W3C//DTD SVG 1.1//EN" "http://www.w3.org/Graphics/SVG/1.1/DTD/svg11.dtd" >
<svg xmlns="http://www.w3.org/2000/svg">
<defs>
  <font id="customIcon" horiz-adv-x="72">
    <font-face font-family="customIcon"
      units-per-em="72" ascent="72"
      descent="0" />
    <missing-glyph horiz-adv-x="0" />
    <glyph glyph-name="info"
      unicode="&#xE08F;"
      horiz-adv-x="72" d=" M36.15075 46.899C38.1375 46.899 39.7485 48.51 39.7485 50.49675C39.7485 52.48575 38.1375 54.09225 36.15075 54.09225S32.553 52.48575 32.553 50.49675C32.553 48.51 34.164 46.899 36.15075 46.899z M38.59425 42.09975V44.49825H31.3965V42.09975H33.795V21.708H31.3965V19.3095H40.99275V21.708H38.59425z M36 65.988C19.43775 65.988 6.012 52.56 6.012 36C6.012 19.4355 19.44 6.012 36 6.012S65.988 19.4355 65.988 36C65.988 52.56225 52.56 65.988 36 65.988zM36 8.4105C20.78775 8.4105 8.4105 20.78775 8.4105 36S20.7855 63.5895 36 63.5895C51.21225 63.5895 63.5895 51.21225 63.5895 36S51.2145 8.4105 36 8.4105z" />
    <glyph glyph-name="light"
      unicode="&#xE090;"
      horiz-adv-x="72" d=" M59.99175 46.81575C59.99175 60.06375 49.2525 70.80525 36 70.80525S12.0105 60.06375 12.0105 46.81575C12.0105 39.01275 15.74775 32.09625 21.51675 27.72L21.5055 27.71325C21.61575 27.639 21.72825 27.5535 21.8475 27.46125C21.85875 27.45225 21.87 27.44325 21.88125 27.4365C23.7375 25.97175 26.406 22.54725 26.406 18.02925V1.19475H45.5985V18.02925C45.5985 22.8285 48.3705 26.271 50.39775 27.639L50.391 27.64575C56.21625 32.01975 59.994 38.97 59.994 46.81575zM28.80225 3.59325V10.8315H43.19775V3.59325H28.80225zM36 44.41725C34.677 44.41725 33.6015 45.49275 33.6015 46.81575S34.67925 49.2165 36 49.2165S38.3985 48.13875 38.3985 46.81575C38.3985 45.49275 37.32075 44.41725 36 44.41725zM48.94875 29.56275C48.91725 29.538 48.88575 29.51325 48.85425 29.4885C46.19925 27.60075 43.19775 23.535 43.19775 18.02925V13.23H37.19925V42.1875C39.26475 42.723 40.797 44.58375 40.797 46.8135C40.797 49.464 38.64825 51.61275 35.99775 51.61275S31.1985 49.464 31.1985 46.8135C31.1985 44.5815 32.73075 42.72075 34.79625 42.1875V13.23H28.79775V18.02925C28.79775 23.19525 25.86825 27.33975 23.382 29.30175C23.364 29.3175 23.33925 29.3355 23.31675 29.3535C23.238 29.41425 23.1615 29.47275 23.08725 29.529C23.04675 29.565 23.00625 29.59875 22.96125 29.63025C17.523 33.75675 14.40225 40.02075 14.40225 46.81575C14.40225 58.7205 24.0885 68.40675 35.99325 68.40675S57.58425 58.7205 57.58425 46.81575C57.58425 39.97575 54.43425 33.68925 48.93975 29.565z" />
    <glyph glyph-name="bulb"
      unicode="&#xE091;"
      horiz-adv-x="72" d=" M36 72C22.329 72 11.25 60.921 11.25 47.25C11.25 38.18025 19.548 28.56825 22.56975 20.12625C27.0765 7.5375 26.577 0 36 0C45.5625 0 44.92125 7.5015 49.43025 20.0745C52.461 28.5345 60.75 38.25 60.75 47.25C60.75 60.921 49.6665 72 36 72zM41.832 10.854L30.6765 9.46125C30.27825 10.61325 29.85075 11.961 29.331 13.7205C29.32425 13.743 29.31525 13.76775 29.31075 13.79025L43.23375 15.5295C43.03575 14.86575 42.82425 14.16825 42.63975 13.54275C42.345 12.5325 42.08175 11.655 41.832 10.854zM28.656 15.957C28.2465 17.3115 27.78525 18.738 27.27225 20.25H44.74575C44.469 19.44225 44.19225 18.63225 43.95375 17.86725L28.656 15.957zM36 4.5C33.72075 4.5 32.67225 4.76325 31.50675 7.3125L41.04225 8.50725C39.66075 4.78575 38.655 4.5 36 4.5zM46.512 24.75H25.51275C24.39225 27.18 23.04675 29.61 21.71925 31.98825C18.783 37.242 15.75 42.67575 15.75 47.25C15.75 58.41675 24.83325 67.5 36 67.5S56.25 58.41675 56.25 47.25C56.25 42.7095 53.2125 37.2465 50.274 31.96125C48.96 29.592 47.6235 27.1665 46.512 24.75zM36 60.75C36.61875 60.75 37.125 60.246 37.125 59.625S36.621 58.5 36 58.5C29.79675 58.5 24.75 53.45325 24.75 47.25C24.75 46.629 24.246 46.125 23.625 46.125S22.5 46.629 22.5 47.25C22.5 54.69525 28.55475 60.75 36 60.75z" />
    <glyph glyph-name="paperplane"
      unicode="&#xE092;"
      horiz-adv-x="72" d=" M70.97175 71.64C70.59825 71.88075 70.173 72 69.75 72C69.31575 72 68.87925 71.87625 68.50125 71.622L1.00125 26.622C0.306 26.16075 -0.0765 25.3485 0.0135 24.516C0.099 23.68575 0.639 22.968 1.41525 22.662L19.01925 15.61725L27.297 1.13175C27.693 0.4365 28.42875 0.00675 29.22525 -0.00225C29.23425 -0.00225 29.241 -0.00225 29.25 -0.00225C30.03975 -0.00225 30.77325 0.41625 31.17825 1.09125L35.8515 8.883L57.66525 0.15975C57.933 0.05175 58.21425 0 58.5 0C58.8825 0 59.2605 0.09675 59.6025 0.29025C60.1965 0.62325 60.60375 1.20825 60.7185 1.881L71.9685 69.381C72.11475 70.26525 71.72325 71.15175 70.97175 71.64zM7.056 25.25175L59.19975 60.0165L21.28725 19.43325C21.087 19.5525 20.90925 19.71 20.68875 19.79775L7.056 25.25175zM22.92525 17.8515C22.92075 17.8605 22.914 17.865 22.9095 17.874L65.53125 63.49275L29.196 6.87825L22.92525 17.8515zM56.73825 5.37975L37.521 13.06575C37.06425 13.24575 36.5895 13.3065 36.11925 13.3335L65.71125 59.2065L56.73825 5.37975z" />
    <glyph glyph-name="dashboard"
      unicode="&#xE093;"
      horiz-adv-x="72" d=" M38.953 63H63V45H38.953V63zM38.953 9V38.953H63V9H38.953zM9 9V27H33.047V9H9zM9 33.047V63H33.047V33.047H9z" />
    <glyph glyph-name="cord"
      unicode="&#xE094;"
      horiz-adv-x="72" d=" M46.218 70.923L33.0015 57.723L27.285 63.423C25.8465 64.863 23.52 64.863 22.08 63.423S20.64 59.658 22.08 58.218L22.89 57.408L16.5 51.003C8.25 42.753 6.555 30.5865 12.51 20.9415L1.74 10.1715C-0.5865 7.848 -0.5865 4.0665 1.74 1.743C4.065 -0.5835 7.845 -0.5835 10.1535 1.743L20.925 12.5265C30.6 6.5265 42.7365 8.238 51 16.5015L57.39 22.9065L58.2165 22.08C59.655 20.6415 61.9785 20.6415 63.42 22.08C64.8615 23.5215 64.8615 25.848 63.42 27.2865L56.9535 33.753L70.92 47.718C72.3615 49.158 72.3615 51.483 70.92 52.923S67.155 54.363 65.7165 52.923L51.75 38.973L38.2035 52.503L51.42 65.718C52.8615 67.158 52.8615 69.483 51.42 70.923S47.6565 72.363 46.218 70.923z" />
    <glyph glyph-name="cord1"
      unicode="&#xE095;"
      horiz-adv-x="72" d=" M60.56325 30.3345L30.3345 60.56325C29.016 61.88175 29.016 64.01925 30.3345 65.3355S33.78825 66.654 35.10675 65.3355L42.26625 58.176L51.01875 66.92625C52.33725 68.24475 54.4725 68.24475 55.791 66.92625S57.1095 63.4725 55.791 62.154L47.04075 53.40375L53.40375 47.04075L62.154 55.791C63.4725 57.1095 65.61 57.1095 66.9285 55.791S68.24475 52.33725 66.9285 51.01875L58.176 42.26625L65.33775 35.10675C66.654 33.78825 66.654 31.653 65.33775 30.3345S61.88175 29.016 60.56325 30.3345zM47.04075 18.40275C44.1225 15.48675 31.131 15.22125 31.131 15.22125L15.22125 31.131C15.22125 31.131 15.48675 44.1225 18.40275 47.04075C21.321 49.95675 29.54025 58.176 29.54025 58.176L58.17825 29.538C58.176 29.54025 49.95675 21.321 47.04075 18.40275zM15.22125 27.9495L27.9495 15.22125C28.82925 14.3415 28.82925 12.9195 27.9495 12.03975S25.6455 11.16 24.76575 12.03975L12.03975 24.768C11.16 25.64775 11.16 27.06975 12.03975 27.9495S14.3415 28.827 15.22125 27.9495zM21.58425 12.03975C21.58425 12.03975 20.5155 10.96875 19.197 9.6525S15.74325 8.334 14.42475 9.6525L13.62825 10.449L7.263 4.086L4.0815 7.2675L10.44675 13.6305L9.6525 14.42475C8.334 15.74325 8.334 17.88075 9.6525 19.19925S12.17025 21.4515 12.17025 21.4515L21.58425 12.03975z" />
    <glyph glyph-name="google"
      unicode="&#xE096;"
      horiz-adv-x="61.71428571428572" d=" M30.8571428571429 40.4202857142857H59.9862857142857C60.2665714285714 38.8542857142857 60.4671428571429 37.3268571428571 60.4671428571429 35.2774285714286C60.4671428571429 17.6785714285714 48.654 5.1428571428571 30.8545714285714 5.1428571428571C13.7777142857143 5.1428571428571 -0.0025714285714 18.9231428571429 -0.0025714285714 36S13.7777142857143 66.8571428571429 30.8545714285714 66.8571428571429C39.1705714285714 66.8571428571429 46.1622857142857 63.8022857142857 51.5468571428571 58.7802857142857L43.1485714285714 50.7034285714286C40.8574285714286 52.9122857142857 36.8408571428572 55.4837142857143 30.8545714285714 55.4837142857143C20.3271428571429 55.4837142857143 11.7282857142857 46.764 11.7282857142857 35.9974285714286S20.3271428571429 16.5111428571429 30.8545714285714 16.5111428571429C43.0688571428572 16.5111428571429 47.6485714285714 25.2694285714286 48.3737142857143 29.8105714285714H30.8545714285714V40.4177142857143z" />
    <glyph glyph-name="google1"
      unicode="&#xE097;"
      horiz-adv-x="72" d=" M36.72 41.14575V28.8H57.13875C56.313 23.50575 50.9715 13.27725 36.72 13.27725C24.435 13.27725 14.40225 23.445 14.40225 36S24.43725 58.72275 36.72 58.72275C43.71075 58.72275 48.393 55.755 51.075 53.1765L60.83775 62.5905C54.567 68.44275 46.43775 72.00225 36.72 72.00225C16.81425 72.00225 0.72 55.908 0.72 36.00225S16.81425 0.00225 36.72 0.00225C57.49875 0.00225 71.28 14.60925 71.28 35.181C71.28 37.54575 71.02575 39.35025 70.713 41.148H36.72z" />
    <glyph glyph-name="home"
      unicode="&#xE098;"
      horiz-adv-x="72" d=" M72 29.25L58.5 42.75V63H49.5V51.75L36 65.25L0 29.25V27H9V4.5H31.5V18H40.5V4.5H63V27H72z" />
    <glyph glyph-name="power-cord"
      unicode="&#xE099;"
      horiz-adv-x="72" d=" M72 52.137L65.637 58.5L53.0685 45.9315L45.9315 53.0685L58.5 65.637L52.137 72L39.5685 59.4315L31.5 67.5L25.40925 61.40925L61.40925 25.40925L67.5 31.5L59.4315 39.5685L72 52.137z M55.8315 24.624L24.624 55.8315C17.8875 47.75175 10.24425 35.26875 15.525 24.52725L6.22575 15.228C4.03875 13.041 4.03875 9.46125 6.22575 7.27425L7.26975 6.23025C9.45675 4.04325 13.0365 4.04325 15.22575 6.23025L24.525 15.5295C35.2665 10.2465 47.7495 17.88975 55.82925 24.62625z" />
    <glyph glyph-name="power"
      unicode="&#xE09A;"
      horiz-adv-x="72" d=" M27 72L0 36H27L9 0L72 45H36L63 72z" />
    <glyph glyph-name="socket"
      unicode="&#xE09B;"
      horiz-adv-x="72" d=" M30 28.5V21H42V28.5C42 31.815 39.315 34.5 36 34.5S30 31.815 30 28.5zM19.5 47.25V39.75C19.5 37.68 21.18 36 23.25 36S27 37.68 27 39.75V47.25C27 49.32 25.32 51 23.25 51S19.5 49.32 19.5 47.25zM45 47.25V39.75C45 37.68 46.68 36 48.75 36S52.5 37.68 52.5 39.75V47.25C52.5 49.32 50.82 51 48.75 51S45 49.32 45 47.25zM0 6C0 2.685 2.685 0 6 0H66C69.315 0 72 2.685 72 6L72 66C72 69.315 69.315 72 66 72H6C2.685 72 0 69.315 0 66V6zM10.5 36C10.5 43.245 11.97 50.13 14.625 56.415L14.775 56.79C15.255 57.81 16.29 58.5 17.49 58.5H54.51C55.7115 58.5 56.745 57.81 57.2265 56.79L57.3765 56.415C60.03 50.13 61.5 43.245 61.5 36S60.03 21.87 57.375 15.585L57.225 15.21C56.745 14.19 55.7115 13.5 54.51 13.5H17.49C16.29 13.5 15.255 14.19 14.775 15.21L14.625 15.585C11.97 21.87 10.5 28.755 10.5 36z" />
    <glyph glyph-name="switch"
      unicode="&#xE09C;"
      horiz-adv-x="72" d=" M34.875 2.1105C19.341 2.1105 6.75 14.70375 6.75 30.2355C6.75 42.19425 14.22675 52.3845 24.75 56.45025V46.44C19.35225 43.05825 15.75 37.0755 15.75 30.2355C15.75 19.674 24.3135 11.1105 34.875 11.1105S54 19.674 54 30.2355C54 36.0765 51.3765 41.29425 47.25 44.80425V55.46025C56.57175 50.87925 63 41.32125 63 30.23325C63 14.7015 50.40675 2.1105 34.875 2.1105zM36 33.6105C33.516 33.6105 31.5 35.6265 31.5 38.1105V63.1395C31.5 65.6235 33.516 67.6395 36 67.6395S40.5 65.6235 40.5 63.1395V38.10825C40.5 35.62425 38.484 33.6105 36 33.6105z" />
    <glyph glyph-name="switch1"
      unicode="&#xE09D;"
      horiz-adv-x="72" d=" M45 61.69275V52.1325C47.54475 51.021 49.887 49.4325 51.90975 47.40975C56.16 43.1595 58.5 37.50975 58.5 31.5S56.16 19.8405 51.90975 15.59025C47.6595 11.34 42.00975 9 36 9S24.3405 11.34 20.09025 15.59025C15.84 19.8405 13.5 25.49025 13.5 31.5S15.84 43.1595 20.09025 47.40975C22.113 49.4325 24.45525 51.02325 27 52.1325V61.69275C13.98825 57.8205 4.5 45.7695 4.5 31.5C4.5 14.103 18.603 0 36 0S67.5 14.103 67.5 31.5C67.5 45.7695 58.01175 57.8205 45 61.69275zM31.5 72H40.5V36H31.5z" />
    <glyph glyph-name="sofa"
      unicode="&#xE09E;"
      horiz-adv-x="72" d=" M72 46.8H69.59925V60.00075H2.3985V46.8H-0.00225V19.19925H2.3985V15.59925H4.79925V14.4C4.13775 14.4 3.6 13.86225 3.6 13.20075S4.13775 12.0015 4.79925 12.0015H7.2C7.8615 12.0015 8.39925 12.53925 8.39925 13.20075S7.8615 14.4 7.2 14.4V15.59925H9.60075V19.19925H62.4015V15.59925H64.80225V14.4C64.14075 14.4 63.603 13.86225 63.603 13.20075S64.14075 12.0015 64.80225 12.0015H67.203C67.8645 12.0015 68.40225 12.53925 68.40225 13.20075S67.8645 14.4 67.203 14.4V15.59925H69.60375V19.19925H72.0045V46.8zM37.19925 57.6H67.1985V46.8H62.39925V38.40075H37.19925V57.6zM9.60075 36H62.4015V28.8H9.60075V36zM4.79925 57.6H34.7985V38.40075H9.5985V46.8H4.79925V57.6zM7.2 18H4.79925V19.19925H7.2V18zM67.20075 18H64.8V19.19925H67.20075V18zM69.59925 21.6H2.3985V44.39925H7.19775V26.39925H64.79775V44.39925H69.597V21.6z" />
    <glyph glyph-name="sofa2"
      unicode="&#xE09F;"
      horiz-adv-x="72" d=" M12.375 48.879H14.625V46.74375H12.375V48.879z M56.25 48.879H58.5V46.74375H56.25V48.879z M43.875 48.879H46.125V46.74375H43.875V48.879z M25.875 48.879H28.125V46.74375H25.875V48.879z M68.598 29.1465C70.596 30.0105 72 31.9995 72 34.3125C72 36.61425 70.6095 38.5965 68.625 39.46725V52.902C68.625 56.91825 65.35575 60.1875 61.3395 60.1875H42.1605C39.57075 60.1875 37.2915 58.82625 36 56.78325C34.7085 58.82625 32.42925 60.1875 29.8395 60.1875H10.6605C6.64425 60.1875 3.375 56.91825 3.375 52.902V39.46725C1.3905 38.5965 0 36.61425 0 34.3125C0 31.9995 1.40175 30.0105 3.402 29.1465C1.386 28.125 0 26.03475 0 23.625C0 20.214 2.7765 17.4375 6.1875 17.4375H6.75V11.8125H9V17.4375H63V11.8125H65.25V17.4375H65.8125C69.2235 17.4375 72 20.214 72 23.625C72 26.03475 70.614 28.125 68.598 29.1465zM69.75 34.3125C69.75 32.45175 68.23575 30.9375 66.375 30.9375S63 32.45175 63 34.3125S64.51425 37.6875 66.375 37.6875C68.23575 37.6875 69.75 36.17325 69.75 34.3125zM63.0045 29.8125H62.52525C62.5725 29.907 62.61525 30.0015 62.65575 30.09825C62.76825 29.99925 62.88525 29.9025 63.0045 29.8125zM37.125 33.723V52.902C37.125 55.6785 39.384 57.9375 42.1605 57.9375H61.3395C64.116 57.9375 66.375 55.6785 66.375 52.902V39.9375C64.7505 39.9375 63.288 39.2445 62.25975 38.142C61.5465 39.1905 60.345 39.88125 58.98375 39.88125H49.0185C46.836 39.88125 45.0585 38.106 45.0585 35.92125V31.581C45.0585 30.9465 45.20925 30.34575 45.477 29.81475H37.12725V33.72525zM60.8085 33.51375V31.57875C60.8085 30.726 60.22125 30.01275 59.4315 29.8125H48.57075C47.781 30.01275 47.19375 30.72825 47.19375 31.57875V35.919C47.19375 36.92475 48.01275 37.74375 49.0185 37.74375H58.98375C59.9895 37.74375 60.8085 36.92475 60.8085 35.919V35.109C60.77025 34.848 60.75 34.5825 60.75 34.31025S60.77025 33.7725 60.8085 33.5115zM5.625 52.902C5.625 55.6785 7.884 57.9375 10.6605 57.9375H29.8395C32.616 57.9375 34.875 55.6785 34.875 52.902V29.8125H8.9955C10.3635 30.8385 11.25 32.47425 11.25 34.3125C11.25 37.41525 8.7255 39.9375 5.625 39.9375V52.902zM2.25 34.3125C2.25 36.17325 3.76425 37.6875 5.625 37.6875S9 36.17325 9 34.3125C9 32.45175 7.48575 30.9375 5.625 30.9375S2.25 32.45175 2.25 34.3125zM65.8125 19.6875H6.1875C4.01625 19.6875 2.25 21.45375 2.25 23.625S4.01625 27.5625 6.1875 27.5625H65.8125C67.98375 27.5625 69.75 25.79625 69.75 23.625S67.98375 19.6875 65.8125 19.6875z" />
    <glyph glyph-name="sofa3"
      unicode="&#xE0A0;"
      horiz-adv-x="72" d=" M6.8445 38.90025C5.139 38.90025 3.75075 40.2885 3.75075 41.994S5.139 45.08775 6.8445 45.08775C8.55 45.08775 9.93825 43.6995 9.93825 41.994S8.55 38.90025 6.8445 38.90025zM6.8445 43.64775C5.93325 43.64775 5.19075 42.90525 5.19075 41.994S5.93325 40.34025 6.8445 40.34025C7.75575 40.34025 8.49825 41.08275 8.49825 41.994S7.75575 43.64775 6.8445 43.64775z M65.1555 38.90025C63.45 38.90025 62.06175 40.2885 62.06175 41.994S63.45 45.08775 65.1555 45.08775C66.861 45.08775 68.24925 43.6995 68.24925 41.994S66.861 38.90025 65.1555 38.90025zM65.1555 43.64775C64.24425 43.64775 63.50175 42.90525 63.50175 41.994S64.24425 40.34025 65.1555 40.34025C66.06675 40.34025 66.80925 41.08275 66.80925 41.994S66.06675 43.64775 65.1555 43.64775z M72 41.994C72 45.76725 68.931 48.8385 65.1555 48.8385C64.566 48.8385 63.9945 48.76425 63.45 48.6225C62.9775 53.38125 58.959 57.1095 54.07875 57.1095H17.919C13.03875 57.1095 9.01575 53.38125 8.54325 48.6225C7.99875 48.762 7.4295 48.83625 6.84225 48.83625C3.069 48.83625 -0.00225 45.765 -0.00225 41.99175C-0.00225 38.763 2.26125 35.9955 5.35725 35.3115V24.057C5.35725 24.05025 5.355 24.04575 5.355 24.04125C5.355 22.464 6.32025 21.1095 7.6905 20.5335C7.46775 20.169 7.335 19.74375 7.335 19.28475C7.335 18.34425 8.064 17.61075 8.51625 17.24625V15.60825C8.51625 15.21 8.838 14.88825 9.23625 14.88825H12.30975C12.708 14.88825 13.02975 15.21 13.02975 15.60825V17.24625C13.482 17.61075 14.211 18.34425 14.211 19.28475C14.211 19.6245 14.139 19.94625 14.01075 20.23875H57.98475C57.8565 19.94625 57.7845 19.6245 57.7845 19.28475C57.7845 18.34425 58.5135 17.61075 58.96575 17.24625V15.60825C58.96575 15.21 59.2875 14.88825 59.68575 14.88825H62.75925C63.1575 14.88825 63.47925 15.21 63.47925 15.60825V17.24625C63.9315 17.61075 64.6605 18.34425 64.6605 19.28475C64.6605 19.7415 64.53 20.169 64.305 20.5335C65.67525 21.1095 66.6405 22.464 66.6405 24.04125C66.6405 24.04575 66.63825 24.0525 66.63825 24.057V35.31375C69.73425 35.99775 71.9955 38.76525 71.9955 41.994zM17.92125 55.6695H54.081C58.347 55.6695 61.8435 52.30575 62.055 48.08925C59.8365 46.95525 58.3155 44.649 58.3155 41.99175C58.3155 41.985 58.3155 41.97825 58.3155 41.9715S58.3155 41.96025 58.3155 41.9535V35.15625C57.69225 35.415 56.8575 35.63775 55.79325 35.8335C53.577 36.24075 50.6385 36.4635 47.52 36.4635S41.463 36.2385 39.24675 35.8335C37.69875 35.55 36.63675 35.21025 36.0045 34.78275C35.37225 35.208 34.308 35.55 32.76225 35.8335C30.546 36.24075 27.6075 36.4635 24.489 36.4635S18.432 36.2385 16.21575 35.8335C15.14925 35.63775 14.31675 35.415 13.6935 35.15625V41.9535C13.6935 41.96025 13.6935 41.96475 13.6935 41.9715S13.6935 41.985 13.6935 41.99175C13.6935 44.649 12.17025 46.95525 9.95175 48.08925C10.16325 52.3035 13.6575 55.6695 17.9235 55.6695zM58.31325 33.5295V30.27375C58.31325 29.8575 57.97575 29.52 57.5595 29.52H36.72V33.5295C37.2555 34.05825 40.91625 35.0235 47.5155 35.0235C54.1215 35.0235 57.78 34.05825 58.311 33.5295zM35.28 33.5295V29.52H14.44275C14.0265 29.52 13.689 29.8575 13.689 30.27375V33.5295C14.22 34.05825 17.8785 35.0235 24.4845 35.0235S34.749 34.05825 35.28 33.5295zM12.77325 19.28475C12.77325 18.92925 12.267 18.43875 11.92725 18.21825C11.72025 18.0855 11.59425 17.856 11.59425 17.61075V16.32825H9.96075V17.61075C9.96075 17.856 9.83475 18.0855 9.62775 18.21825C9.28575 18.43875 8.7795 18.9315 8.7795 19.287C8.7795 19.8135 9.207 20.241 9.7335 20.241H11.8215C12.348 20.241 12.7755 19.8135 12.7755 19.287zM62.37675 18.21825C62.1675 18.0855 62.0415 17.856 62.0415 17.61075V16.32825H60.408V17.61075C60.408 17.856 60.282 18.0855 60.075 18.21825C59.733 18.43875 59.22675 18.9315 59.22675 19.287C59.22675 19.8135 59.65425 20.241 60.18075 20.241H62.26875C62.79525 20.241 63.22275 19.8135 63.22275 19.287C63.22275 18.9315 62.7165 18.441 62.37675 18.2205zM66.12075 36.67725C66.12075 36.67725 66.12075 36.67725 66.12075 36.67725C66.0465 36.66375 65.3985 36.58725 65.1555 36.58725C64.26675 36.58725 63.4185 36.7965 62.63775 37.20825C62.28675 37.39275 61.85025 37.25775 61.66575 36.90675S61.61625 36.11925 61.96725 35.93475C62.94375 35.4195 64.04625 35.14725 65.1555 35.14725C65.17125 35.14725 65.18475 35.14725 65.2005 35.14725V24.039C65.2005 24.0345 65.2005 24.03225 65.2005 24.02775C65.19375 22.7295 64.1385 21.6765 62.838 21.6765H9.15525C7.857 21.6765 6.7995 22.7295 6.79275 24.02775C6.79275 24.03225 6.795 24.0345 6.795 24.039V35.14725C6.81075 35.14725 6.8265 35.14725 6.84 35.14725C7.94925 35.14725 9.05175 35.4195 10.02825 35.93475C10.37925 36.11925 10.51425 36.55575 10.32975 36.90675S9.70875 37.39275 9.35775 37.20825C8.58825 36.80325 7.7175 36.58725 6.84 36.58725C6.525 36.58725 6.21 36.61875 5.90175 36.67275C5.90175 36.67275 5.90175 36.67275 5.90175 36.6705C3.33675 37.11825 1.4355 39.3615 1.4355 41.99175C1.4355 44.97075 3.85875 47.39625 6.84 47.39625S12.2445 44.973 12.2445 41.9985L12.2445 41.958C12.2445 41.9445 12.2445 41.92875 12.2445 41.91525V30.27375C12.2445 29.06325 13.22775 28.08 14.43825 28.08H57.555C58.7655 28.08 59.74875 29.06325 59.74875 30.27375V41.91525C59.74875 41.9265 59.74875 41.94 59.74875 41.95125C59.74875 41.967 59.74875 41.98275 59.74875 41.9895C59.74875 44.9685 62.172 47.394 65.15325 47.394S70.55775 44.97075 70.55775 41.9895C70.55775 39.36825 68.67 37.134 66.1185 36.675z M23.895 50.70825C23.61375 50.9895 23.157 50.9895 22.87575 50.70825L22.34475 50.17725L21.81375 50.70825C21.5325 50.9895 21.07575 50.9895 20.7945 50.70825S20.51325 49.97025 20.7945 49.689L21.3255 49.158L20.7945 48.627C20.51325 48.34575 20.51325 47.889 20.7945 47.60775C20.93625 47.46825 21.1185 47.39625 21.303 47.39625S21.672 47.466 21.8115 47.60775L22.3425 48.13875L22.8735 47.60775C23.01525 47.46825 23.1975 47.39625 23.382 47.39625S23.751 47.466 23.8905 47.60775C24.17175 47.889 24.17175 48.34575 23.8905 48.627L23.3595 49.158L23.8905 49.689C24.17175 49.97025 24.17175 50.427 23.8905 50.70825z M23.895 42.79275C23.61375 43.074 23.157 43.074 22.87575 42.79275L22.34475 42.26175L21.81375 42.79275C21.5325 43.074 21.07575 43.074 20.7945 42.79275S20.51325 42.05475 20.7945 41.7735L21.3255 41.2425L20.7945 40.7115C20.51325 40.43025 20.51325 39.9735 20.7945 39.69225C20.93625 39.5505 21.1185 39.48075 21.303 39.48075S21.672 39.5505 21.8115 39.69225L22.3425 40.22325L22.8735 39.69225C23.01525 39.5505 23.1975 39.48075 23.382 39.48075S23.751 39.5505 23.8905 39.69225C24.17175 39.9735 24.17175 40.43025 23.8905 40.7115L23.3595 41.2425L23.8905 41.7735C24.17175 42.05475 24.17175 42.5115 23.8905 42.79275z M50.6745 49.158L51.2055 49.689C51.48675 49.97025 51.48675 50.427 51.2055 50.70825S50.4675 50.9895 50.1885 50.70825L49.6575 50.17725L49.1265 50.70825C48.84525 50.9895 48.3885 50.9895 48.1095 50.70825S47.82825 49.97025 48.1095 49.689L48.6405 49.158L48.1095 48.627C47.82825 48.34575 47.82825 47.889 48.1095 47.60775C48.249 47.46825 48.4335 47.39625 48.618 47.39625S48.987 47.466 49.1265 47.60775L49.6575 48.13875L50.1885 47.60775C50.328 47.46825 50.5125 47.39625 50.697 47.39625S51.066 47.466 51.2055 47.60775C51.48675 47.889 51.48675 48.34575 51.2055 48.627L50.6745 49.158z M51.2055 42.79275C50.92425 43.074 50.4675 43.074 50.1885 42.79275L49.6575 42.26175L49.1265 42.79275C48.84525 43.074 48.3885 43.074 48.1095 42.79275S47.82825 42.05475 48.1095 41.7735L48.6405 41.2425L48.1095 40.7115C47.82825 40.43025 47.82825 39.9735 48.1095 39.69225C48.249 39.5505 48.4335 39.48075 48.618 39.48075S48.987 39.5505 49.1265 39.69225L49.6575 40.22325L50.1885 39.69225C50.328 39.5505 50.5125 39.48075 50.697 39.48075S51.066 39.5505 51.2055 39.69225C51.48675 39.9735 51.48675 40.43025 51.2055 40.7115L50.6745 41.2425L51.2055 41.7735C51.48675 42.05475 51.48675 42.5115 51.2055 42.79275z M37.017 49.158L37.548 49.689C37.82925 49.97025 37.82925 50.427 37.548 50.70825S36.81 50.9895 36.52875 50.70825L35.99775 50.17725L35.46675 50.70825C35.1855 50.9895 34.72875 50.9895 34.4475 50.70825S34.16625 49.97025 34.4475 49.689L34.9785 49.158L34.4475 48.627C34.16625 48.34575 34.16625 47.889 34.4475 47.60775C34.587 47.46825 34.7715 47.39625 34.956 47.39625S35.325 47.466 35.4645 47.60775L35.9955 48.13875L36.5265 47.60775C36.66825 47.466 36.8505 47.39625 37.035 47.39625S37.404 47.466 37.5435 47.60775C37.82475 47.889 37.82475 48.34575 37.5435 48.627L37.0125 49.158z M37.55025 42.79275C37.269 43.074 36.81225 43.074 36.531 42.79275L36 42.26175L35.469 42.79275C35.18775 43.074 34.731 43.074 34.44975 42.79275S34.1685 42.05475 34.44975 41.7735L34.98075 41.2425L34.44975 40.7115C34.1685 40.43025 34.1685 39.9735 34.44975 39.69225C34.58925 39.5505 34.77375 39.48075 34.95825 39.48075S35.32725 39.5505 35.46675 39.69225L35.99775 40.22325L36.52875 39.69225C36.6705 39.5505 36.85275 39.48075 37.03725 39.48075S37.40625 39.5505 37.54575 39.69225C37.827 39.9735 37.827 40.43025 37.54575 40.7115L37.01475 41.2425L37.54575 41.7735C37.827 42.05475 37.827 42.5115 37.54575 42.79275z" />
    <glyph glyph-name="aisle"
      unicode="&#xE0A1;"
      horiz-adv-x="72" d=" M0 72V0H72V72H0zM7.01775 4.5L24.31125 25.49925H46.23525L64.764 4.5H7.01775zM4.5 67.5H67.5V8.199L49.5 28.5975V53.99775H20.99925V28.55475L4.5 8.52075V67.49775zM45 49.5V29.99925H25.49925V49.5H45z" />
    <glyph glyph-name="veranda"
      unicode="&#xE0A2;"
      horiz-adv-x="72" d=" M70.8345 11.04075H68.2695V13.60575C68.2695 14.53275 67.74075 15.33825 66.97125 15.74325C67.00725 15.8535 67.02525 15.97275 67.02525 16.09425V43.542H69.59025C70.01775 43.542 70.40925 43.776 70.614 44.1495S70.803 44.97975 70.57125 45.33975L59.37525 62.757C59.1615 63.09 58.79025 63.2925 58.39425 63.2925H13.608C13.212 63.2925 12.84075 63.09 12.627 62.757L1.431 45.33975C1.19925 44.97975 1.1835 44.52525 1.38825 44.1495S1.9845 43.542 2.412 43.542H4.977V16.09425C4.977 15.9705 4.99725 15.8535 5.031 15.74325C4.2615 15.3405 3.73275 14.535 3.73275 13.60575V11.04075H1.16775C0.52425 11.04075 0.00225 10.51875 0.00225 9.87525S0.52425 8.70975 1.16775 8.70975H70.8345C71.478 8.70975 72 9.23175 72 9.87525S71.478 11.04075 70.8345 11.04075zM57.07125 16.01775V26.12475H59.715V16.01775H57.07125zM52.09425 16.01775V26.12475H54.738V16.01775H52.09425zM47.1195 16.01775V26.12475H49.76325V16.01775H47.1195zM27.21375 16.01775V36.7605L33.99525 43.542H38.00475L44.78625 36.7605V16.01775H27.21375zM22.23675 16.01775V26.12475H24.8805V16.01775H22.23675zM17.262 16.01775V26.12475H19.90575V16.01775H17.262zM12.285 16.01775V26.12475H14.92875V16.01775H12.285zM7.30575 16.01775C7.308 16.0425 7.31025 16.0695 7.31025 16.0965V26.127H9.954V16.02H7.30575zM18.099 43.542L24.8805 36.7605V28.458H7.308V36.7605L14.0895 43.542H18.099zM43.22025 60.95925L46.95075 45.87525H25.04925L28.77975 60.95925H43.2225zM57.9105 43.542L64.692 36.7605V28.458H47.1195V36.7605L53.901 43.542H57.9105zM41.30325 43.542H44.78625V40.059L41.30325 43.542zM47.1195 40.059V43.542H50.6025L47.1195 40.059zM27.21375 40.059V43.542H30.69675L27.21375 40.059zM24.8805 43.542V40.059L21.3975 43.542H24.8805zM62.04825 26.12475H64.692V16.09425C64.692 16.06725 64.69425 16.0425 64.6965 16.0155H62.04825V26.1225zM64.692 40.059L61.209 43.542H64.692V40.059zM67.45275 45.87525H49.35375L45.62325 60.95925H57.75525L67.45275 45.87525zM14.24475 60.95925H26.37675L22.64625 45.87525H4.54725L14.24475 60.95925zM10.791 43.542L7.308 40.059V43.542H10.791zM6.06375 13.608C6.06375 13.65075 6.0975 13.68675 6.1425 13.68675H65.8575C65.90025 13.68675 65.93625 13.653 65.93625 13.608V11.043H6.066V13.608z" />
    <glyph glyph-name="celsius"
      unicode="&#xE0A3;"
      horiz-adv-x="72" d=" M13.05 65.673C5.85 65.673 0 59.8185 0 52.623C0 45.42075 5.85225 39.57525 13.05 39.57525S26.1045 45.42525 26.1 52.623C26.1 59.8185 20.24775 65.673 13.05 65.673zM13.05 46.09575C9.45225 46.09575 6.52275 49.023 6.52275 52.623C6.52275 56.21625 9.45225 59.15025 13.05 59.15025S19.57725 56.22075 19.57725 52.623C19.57725 49.023 16.64775 46.09575 13.05 46.09575zM59.2245 16.533C48.366 16.533 41.931 23.373 41.931 34.2225C41.931 46.2825 49.48875 52.15275 59.13675 52.15275C63.558 52.15275 67.014 51.183 69.4215 50.139L71.99775 59.78925C69.8265 60.9975 64.998 62.2035 58.64625 62.2035C42.24825 62.2035 29.061 51.9885 29.061 33.49575C29.061 18.0585 38.71125 6.32475 57.44925 6.32475C63.96525 6.32475 69.10875 7.614 71.27775 8.66025L69.50925 18.306C67.02075 17.25975 63 16.53075 59.2245 16.53075z" />
    <glyph glyph-name="temperature"
      unicode="&#xE0A4;"
      horiz-adv-x="72" d=" M42.102 25.767H42.345V65.655C42.345 69.15825 39.5055 72 36 72S29.655 69.1605 29.655 65.655V25.767H29.898C25.4475 23.5305 22.392 18.927 22.392 13.60575C22.392 6.09075 28.485 -0.00225 36 -0.00225S49.608 6.09075 49.608 13.60575C49.608 18.927 46.5525 23.5305 42.102 25.767zM32.544 19.71675C31.9635 19.41975 27.0045 16.67025 29.24325 10.404C29.53575 9.585 29.10825 8.685 28.28925 8.3925C28.11375 8.3295 27.936 8.30025 27.7605 8.30025C27.11475 8.30025 26.50725 8.70075 26.27775 9.34425C23.6925 16.58025 28.32525 21.13425 31.1355 22.5315C31.914 22.9185 32.859 22.60125 33.246 21.82275S33.31575 20.10375 32.54175 19.71675zM39.0645 54.18225H32.9355V65.0565C32.9355 66.74625 34.31025 68.121 36 68.121S39.0645 66.74625 39.0645 65.0565V54.18225z" />
    <glyph glyph-name="umidity"
      unicode="&#xE0A5;"
      horiz-adv-x="72" d=" M44.2665 33.1875C38.28825 45.51525 36 49.42575 36 49.42575S33.71175 45.513 27.7335 33.1875C24.57225 26.6625 20.871 21.00825 20.871 13.923C20.86875 1.449 36 1.962 36 1.962S51.13125 1.4445 51.13125 13.9185C51.13125 21.00825 47.43 26.667 44.2665 33.18525z M67.3155 58.9545C63.234 67.3695 61.6725 70.038 61.6725 70.038S60.10875 67.36725 56.02725 58.9545C53.8695 54.50175 51.34275 50.64075 51.34275 45.80325C51.34275 37.28925 61.67025 37.64025 61.67025 37.64025S72.00225 37.287 72.00225 45.80325C72.00225 50.64075 69.4755 54.4995 67.31775 58.9545z M15.975 58.9545C11.89125 67.3695 10.3275 70.038 10.3275 70.038S8.766 67.36725 4.6845 58.9545C2.5245 54.4995 -0.00225 50.64075 -0.00225 45.80325C-0.00225 37.28925 10.32525 37.64025 10.32525 37.64025S20.65275 37.287 20.65275 45.80325C20.655 50.64075 18.126 54.4995 15.9705 58.9545z" />
    <glyph glyph-name="umidity2"
      unicode="&#xE0A6;"
      horiz-adv-x="72" d=" M45.8595 60.86925C45.32175 61.6005 44.2935 61.758 43.56225 61.22025S42.6735 59.65425 43.21125 58.923C55.17 42.651 57.67875 31.8555 57.67875 25.6635C57.67875 19.59525 55.86525 14.09625 52.57575 10.17675C48.73725 5.60475 43.1595 3.28725 36 3.28725C19.998 3.28725 14.32125 15.34275 14.32125 25.6635C14.32125 37.107 20.4795 48.28275 25.64325 55.6425C31.30875 63.7155 37.05975 69.09975 37.11825 69.1515C37.78425 69.768 37.8225 70.80975 37.20375 71.4735S35.5455 72.17775 34.88175 71.559C34.63875 71.334 28.85625 65.9295 22.995 57.58875C17.53875 49.82625 11.034 37.98675 11.034 25.6635C11.034 18.85725 13.1535 12.6045 17.001 8.05725C21.46275 2.7855 28.03275 -0.00225 36 -0.00225C44.06175 -0.00225 50.66325 2.7855 55.0935 8.06175C58.88025 12.573 60.966 18.8235 60.966 25.6635C60.966 37.773 52.75125 51.49125 45.8595 60.86925z M43.47675 39.5415L22.626 18.69075C21.98475 18.0495 21.98475 17.00775 22.626 16.3665C22.94775 16.04475 23.3685 15.885 23.78925 15.885S24.63075 16.04475 24.9525 16.3665L45.80325 37.21725C46.4445 37.8585 46.4445 38.90025 45.80325 39.5415S44.12025 40.18275 43.479 39.5415z M42.05925 26.44875C39.14775 26.44875 36.7785 24.0795 36.7785 21.168S39.14775 15.88725 42.05925 15.88725S47.34 18.2565 47.34 21.168S44.97075 26.44875 42.05925 26.44875zM42.05925 19.17225C40.959 19.17225 40.0635 20.06775 40.0635 21.168S40.959 23.16375 42.05925 23.16375S44.055 22.26825 44.055 21.168S43.1595 19.17225 42.05925 19.17225z M27.4275 29.45925C30.339 29.45925 32.70825 31.8285 32.70825 34.74S30.339 40.02075 27.4275 40.02075S22.14675 37.6515 22.14675 34.74S24.516 29.45925 27.4275 29.45925zM27.4275 36.73575C28.52775 36.73575 29.42325 35.84025 29.42325 34.74S28.52775 32.74425 27.4275 32.74425C26.32725 32.74425 25.43175 33.63975 25.43175 34.74S26.32725 36.73575 27.4275 36.73575z" />
    <glyph glyph-name="veranda-svgrepo-com"
      unicode="&#xE0A7;"
      horiz-adv-x="72" d=" M70.8345 11.04075H68.2695V13.60575C68.2695 14.53275 67.74075 15.33825 66.97125 15.74325C67.00725 15.8535 67.02525 15.97275 67.02525 16.09425V43.542H69.59025C70.01775 43.542 70.40925 43.776 70.614 44.1495S70.803 44.97975 70.57125 45.33975L59.37525 62.757C59.1615 63.09 58.79025 63.2925 58.39425 63.2925H13.608C13.212 63.2925 12.84075 63.09 12.627 62.757L1.431 45.33975C1.19925 44.97975 1.1835 44.52525 1.38825 44.1495S1.9845 43.542 2.412 43.542H4.977V16.09425C4.977 15.9705 4.99725 15.8535 5.031 15.74325C4.2615 15.3405 3.73275 14.535 3.73275 13.60575V11.04075H1.16775C0.52425 11.04075 0.00225 10.51875 0.00225 9.87525S0.52425 8.70975 1.16775 8.70975H70.8345C71.478 8.70975 72 9.23175 72 9.87525S71.478 11.04075 70.8345 11.04075zM57.07125 16.01775V26.12475H59.715V16.01775H57.07125zM52.09425 16.01775V26.12475H54.738V16.01775H52.09425zM47.1195 16.01775V26.12475H49.76325V16.01775H47.1195zM27.21375 16.01775V36.7605L33.99525 43.542H38.00475L44.78625 36.7605V16.01775H27.21375zM22.23675 16.01775V26.12475H24.8805V16.01775H22.23675zM17.262 16.01775V26.12475H19.90575V16.01775H17.262zM12.285 16.01775V26.12475H14.92875V16.01775H12.285zM7.30575 16.01775C7.308 16.0425 7.31025 16.0695 7.31025 16.0965V26.127H9.954V16.02H7.30575zM18.099 43.542L24.8805 36.7605V28.458H7.308V36.7605L14.0895 43.542H18.099zM43.22025 60.95925L46.95075 45.87525H25.04925L28.77975 60.95925H43.2225zM57.9105 43.542L64.692 36.7605V28.458H47.1195V36.7605L53.901 43.542H57.9105zM41.30325 43.542H44.78625V40.059L41.30325 43.542zM47.1195 40.059V43.542H50.6025L47.1195 40.059zM27.21375 40.059V43.542H30.69675L27.21375 40.059zM24.8805 43.542V40.059L21.3975 43.542H24.8805zM62.04825 26.12475H64.692V16.09425C64.692 16.06725 64.69425 16.0425 64.6965 16.0155H62.04825V26.1225zM64.692 40.059L61.209 43.542H64.692V40.059zM67.45275 45.87525H49.35375L45.62325 60.95925H57.75525L67.45275 45.87525zM14.24475 60.95925H26.37675L22.64625 45.87525H4.54725L14.24475 60.95925zM10.791 43.542L7.308 40.059V43.542H10.791zM6.06375 13.608C6.06375 13.65075 6.0975 13.68675 6.1425 13.68675H65.8575C65.90025 13.68675 65.93625 13.653 65.93625 13.608V11.043H6.066V13.608z" />
    <glyph glyph-name="moon"
      unicode="&#xE0A8;"
      horiz-adv-x="72" d=" M55.42425 22.086C37.00125 22.086 22.07925 37.01925 22.07925 55.431C22.07925 61.49475 23.8185 67.104 26.649 71.99775C11.295 67.56975 0 53.577 0 36.79875C0 16.479 16.47 0 36.792 0C53.57025 0 67.572 11.30175 72 26.649C67.095 23.8275 61.488 22.086 55.42425 22.086z" />
    <glyph glyph-name="sun"
      unicode="&#xE0A9;"
      horiz-adv-x="72" d=" M36.00225 54C26.06175 54 18.00225 45.9405 18.00225 36S26.06175 18 36.00225 18C45.94275 18 54 26.0595 54 36S45.94275 54 36.00225 54V54zM31.5 67.5C31.5 69.98625 33.51375 72 36 72S40.5 69.98625 40.5 67.5C40.5 65.01375 38.48625 63 36 63S31.5 65.01375 31.5 67.5zM9 58.5C9 60.98625 11.01375 63 13.5 63S18 60.98625 18 58.5C18 56.01375 15.98625 54 13.5 54S9 56.01375 9 58.5zM4.5 40.5C6.98625 40.5 9 38.48625 9 36C9 33.50925 6.98625 31.5 4.5 31.5S0 33.50925 0 36C0 38.48625 2.01375 40.5 4.5 40.5zM9 13.5C9 15.98625 11.01375 18 13.5 18S18 15.98625 18 13.5C18 11.01375 15.98625 9 13.5 9S9 11.01375 9 13.5zM31.5 4.5C31.5 6.99525 33.51375 9 36 9C38.493 9 40.5 6.99525 40.5 4.5C40.5 2.0205 38.493 0 36 0C33.51375 0 31.5 2.0205 31.5 4.5zM54 13.5C54 15.98625 56.01375 18 58.5 18S63 15.98625 63 13.5C63 11.01375 60.98625 9 58.5 9S54 11.01375 54 13.5zM67.5 31.5C65.016 31.5 63 33.516 63 36C63 38.49075 65.016 40.5 67.5 40.5S72 38.49075 72 36C72 33.516 69.984 31.5 67.5 31.5zM54 58.5C54 60.98625 56.01375 63 58.5 63S63 60.98625 63 58.5C63 56.01375 60.98625 54 58.5 54S54 56.01375 54 58.5z" />
    <glyph glyph-name="backyard"
      unicode="&#xE0AA;"
      horiz-adv-x="72" d=" M16.12125 44.51175C13.7565 41.40225 15.36975 36.2025 19.719 32.895C21.9735 31.1805 24.516 30.31875 26.7705 30.31875C28.21725 30.31875 29.54475 30.672 30.6045 31.38075C31.86 29.4345 34.677 28.071 37.96425 28.071C41.31 28.071 44.17875 29.47725 45.39825 31.482C45.50175 31.47975 45.6075 31.4775 45.711 31.4775C47.35125 31.4775 49.104 31.85775 50.79825 32.661C55.638 34.94925 58.15125 39.7845 56.41425 43.45425C56.322 43.65 56.1825 43.80975 56.07 43.9875C56.63025 45.10125 56.9655 46.32975 56.9655 47.63925C56.9655 49.70925 56.151 51.58575 54.84825 53.07525C56.4795 56.2095 54.2295 60.95025 49.60125 63.87075C48.90825 64.30725 48.19725 64.66275 47.48625 64.971C47.619 67.365 45.73575 69.88275 42.76575 70.97625C41.81175 71.32725 40.84875 71.49375 39.933 71.49375C38.1105 71.49375 36.47475 70.83675 35.46675 69.678C33.89175 71.145 31.8375 72.0045 29.6955 72.0045C29.034 72.0045 28.3635 71.9235 27.6975 71.7525C23.16825 70.59825 20.48625 65.79 21.7035 61.02225C21.789 60.6825 21.93075 60.37425 22.05 60.05475C18.1125 59.166 15.16725 55.66275 15.16725 51.45525C15.16725 49.22775 16.02 47.21625 17.3835 45.6615C16.90875 45.34425 16.47225 44.97975 16.12125 44.51625z M55.4805 4.78575H40.88475V26.01C39.951 25.80975 38.979 25.67475 37.96425 25.67475C35.361 25.67475 32.9715 26.4105 31.113 27.64575V4.78575H16.51725C15.19425 4.78575 14.12325 3.71475 14.12325 2.39175S15.19425 -0.00225 16.51725 -0.00225H55.4805C56.80125 -0.00225 57.8745 1.06875 57.8745 2.39175S56.8035 4.78575 55.4805 4.78575z" />
  </font>
</defs>
</svg>
